<svg width="24" height="24" viewBox="0 0 24 24" fill="none" xmlns="http://www.w3.org/2000/svg">
<path d="M12 0C5.374 0 0 5.374 0 12C0 18.626 5.374 24 12 24C18.626 24 24 18.626 24 12C24.0193 5.374 18.6453 0 12 0ZM11.4607 17.9133C10.8058 18.3756 10.0161 18.6453 9.22632 18.6453C7.83949 18.6453 6.56822 17.8941 5.60514 16.5072C4.73836 15.1782 4.25682 13.6372 4.2183 12.0578C4.2183 12 4.25682 11.9422 4.31461 11.923L5.25843 11.4992C5.33547 11.4607 5.41252 11.4992 5.45104 11.5762C5.45104 11.5955 5.4703 11.6148 5.4703 11.634C5.4703 13.2135 5.89406 14.6966 6.64526 15.7945C7.35795 16.8347 8.2825 17.3933 9.24559 17.3933C9.76565 17.3933 10.2857 17.2392 10.7095 16.9502C10.7673 16.9117 10.8636 16.931 10.9021 16.9888C11.0947 17.2392 11.2873 17.4703 11.4992 17.7014C11.5185 17.7592 11.5185 17.8555 11.4607 17.9133ZM18.4141 16.5072C17.4703 17.8748 16.1798 18.6453 14.7929 18.6453C13.4061 18.6453 12.1348 17.8748 11.1717 16.5072C10.2665 15.1974 9.76565 13.4639 9.76565 11.634C9.76565 9.93901 10.748 8.60995 11.9807 8.60995C13.2135 8.60995 14.1958 9.93901 14.1958 11.634C14.2151 13.1172 13.8684 14.5618 13.175 15.8716C13.1364 15.9486 13.0401 15.9679 12.9823 15.9294C12.9631 15.9294 12.9631 15.9101 12.9438 15.8909C12.8282 15.756 12.7127 15.6212 12.6164 15.4864C12.5008 15.313 12.4045 15.1589 12.3082 14.9663C12.2889 14.9278 12.2889 14.87 12.3082 14.8315C12.7512 13.8106 12.9631 12.7127 12.9631 11.6148C12.9631 10.7865 12.5393 9.8427 11.9807 9.8427C11.4222 9.8427 10.9984 10.7865 10.9984 11.6148C10.9984 13.1942 11.4222 14.6774 12.1734 15.7753C12.886 16.8154 13.8106 17.374 14.7737 17.374C15.7368 17.374 16.6613 16.7961 17.374 15.7753C18.1252 14.6774 18.549 13.1942 18.549 11.6148C18.549 10.0353 18.1252 8.55217 17.374 7.45425C17.1621 7.12681 16.8925 6.83788 16.6035 6.58748C16.5457 6.5297 16.5457 6.43339 16.5843 6.3756C16.6035 6.35634 16.6228 6.33708 16.6421 6.33708L17.5859 5.91332C17.6437 5.89406 17.7014 5.89406 17.74 5.95185C17.9904 6.20225 18.2022 6.47191 18.3949 6.74157C19.3002 8.05136 19.801 9.78491 19.801 11.6148C19.801 13.4446 19.3194 15.1974 18.4141 16.5072Z" fill="#A566FF"/>
</svg>
