<svg width="27" height="24" viewBox="0 0 27 24" fill="none" xmlns="http://www.w3.org/2000/svg">
<path d="M10.6286 24C16.4986 24 21.2571 19.2414 21.2571 13.3714C21.2571 7.50143 16.4986 2.74286 10.6286 2.74286C4.75857 2.74286 0 7.50143 0 13.3714C0 19.2414 4.75857 24 10.6286 24Z" fill="#FCBC67"/>
<path fill-rule="evenodd" clip-rule="evenodd" d="M16.1143 19.1314C20.8103 19.1314 24.6171 15.3246 24.6171 10.6286C24.6171 5.93258 20.8103 2.12571 16.1143 2.12571C11.4183 2.12571 7.61143 5.93258 7.61143 10.6286C7.61143 15.3246 11.4183 19.1314 16.1143 19.1314ZM16.1143 21.2571C21.9842 21.2571 26.7429 16.4986 26.7429 10.6286C26.7429 4.75857 21.9842 0 16.1143 0C10.2443 0 5.48572 4.75857 5.48572 10.6286C5.48572 16.4986 10.2443 21.2571 16.1143 21.2571Z" fill="black"/>
</svg>
