<svg width="54" height="54" viewBox="0 0 54 54" fill="none" xmlns="http://www.w3.org/2000/svg">
<g filter="url(#filter0_d_30_905)">
<path d="M31.6042 44.7994L49.8351 2.78977C50.0487 2.29732 50.0551 1.73923 49.8522 1.24217C49.6497 0.744723 49.2553 0.350333 48.7579 0.147446C48.2608 -0.0551028 47.7027 -0.0486761 47.2103 0.16492L5.201 18.396C4.63545 18.6413 4.21537 19.1341 4.06238 19.7314C3.9094 20.3287 4.04134 20.9627 4.41933 21.4498C4.79731 21.9366 5.37893 22.2215 5.99549 22.2215H25.7828C26.312 22.2215 26.8194 22.4319 27.1939 22.8059C27.5679 23.1804 27.7783 23.6878 27.7783 24.217V44.0045C27.7783 44.621 28.0632 45.2026 28.55 45.5807C29.0371 45.9587 29.6711 46.0906 30.2683 45.9376C30.8656 45.7846 31.3584 45.3642 31.6038 44.799L31.6042 44.7994Z" fill="#0B80DF"/>
<path d="M48.2858 1.30487C48.1005 1.2295 47.892 1.23181 47.7079 1.31159C47.7079 1.31162 47.7078 1.31165 47.7078 1.31168L5.69863 19.5427L5.69846 19.5427C5.48744 19.6343 5.33054 19.8181 5.27329 20.0416L48.2858 1.30487ZM48.2858 1.30487C48.472 1.3808 48.619 1.52804 48.6945 1.71356L48.695 1.71458C48.7705 1.89957 48.7683 2.10804 48.6884 2.29237L31.1973 42.5972M48.2858 1.30487L31.1973 42.5972M31.1973 42.5972L31.197 42.5969L30.4572 44.3012C30.3654 44.5125 30.1813 44.6696 29.9582 44.7267C29.7357 44.7837 29.4991 44.7348 29.3167 44.5934C29.1347 44.4521 29.0283 44.2348 29.0283 44.0045V24.217C29.0283 23.3559 28.686 22.5309 28.0782 21.9225L28.0773 21.9216C27.4689 21.3139 26.644 20.9715 25.7828 20.9715H5.99549C5.76531 20.9715 5.54817 20.8652 5.40688 20.6835C5.26526 20.501 5.21626 20.2643 5.27328 20.0416L31.1973 42.5972Z" stroke="white" stroke-width="2.5"/>
</g>
<defs>
<filter id="filter0_d_30_905" x="0" y="0" width="54" height="54" filterUnits="userSpaceOnUse" color-interpolation-filters="sRGB">
<feFlood flood-opacity="0" result="BackgroundImageFix"/>
<feColorMatrix in="SourceAlpha" type="matrix" values="0 0 0 0 0 0 0 0 0 0 0 0 0 0 0 0 0 0 127 0" result="hardAlpha"/>
<feOffset dy="4"/>
<feGaussianBlur stdDeviation="2"/>
<feComposite in2="hardAlpha" operator="out"/>
<feColorMatrix type="matrix" values="0 0 0 0 0 0 0 0 0 0 0 0 0 0 0 0 0 0 0.2 0"/>
<feBlend mode="normal" in2="BackgroundImageFix" result="effect1_dropShadow_30_905"/>
<feBlend mode="normal" in="SourceGraphic" in2="effect1_dropShadow_30_905" result="shape"/>
</filter>
</defs>
</svg>
