<svg width="131" height="131" viewBox="0 0 131 131" fill="none" xmlns="http://www.w3.org/2000/svg">
<path fill-rule="evenodd" clip-rule="evenodd" d="M11.8012 65.367C11.8012 35.6366 35.9024 11.5354 65.6329 11.5354C78.7083 11.5354 90.6949 16.1972 100.022 23.9494L88.2816 35.4895C81.9896 30.7119 74.1422 27.8771 65.6329 27.8771C46.0271 27.8771 29.9367 42.9264 28.2829 62.1035C26.8217 62.4702 25.7398 63.792 25.7398 65.367C25.7398 66.9421 26.8217 68.2639 28.2829 68.6306C29.7594 85.7491 42.7391 99.5785 59.4543 102.35C59.9056 105.357 62.5001 107.663 65.6329 107.663C68.7657 107.663 71.3602 105.357 71.8115 102.35C89.577 99.4041 103.123 83.9673 103.123 65.367C103.123 57.3336 100.596 49.8904 96.2939 43.7887L108.057 32.226C115.204 41.3629 119.465 52.8675 119.465 65.367C119.465 95.0975 95.3634 119.199 65.6329 119.199C35.9024 119.199 11.8012 95.0975 11.8012 65.367ZM71.7995 100.402C88.5037 97.482 101.2 82.907 101.2 65.367C101.2 57.8594 98.874 50.895 94.9034 45.1557L82.9167 56.9376C84.1606 59.4831 84.8585 62.3433 84.8585 65.367C84.8585 75.9849 76.2507 84.5927 65.6329 84.5927C55.0151 84.5927 46.4073 75.9849 46.4073 65.367C46.4073 54.7492 55.0151 46.1414 65.6329 46.1414C69.0262 46.1414 72.2138 47.0205 74.9809 48.5634L86.8955 36.8521C80.9644 32.4225 73.6048 29.7997 65.6329 29.7997C47.0615 29.7997 31.8141 44.0334 30.2059 62.1871C31.5229 62.6433 32.4688 63.8948 32.4688 65.367C32.4688 66.8392 31.5229 68.0908 30.2059 68.547C31.632 84.6446 43.783 97.6603 59.4663 100.402C59.9503 97.4329 62.527 95.1667 65.6329 95.1667C68.7388 95.1667 71.3155 97.4329 71.7995 100.402ZM65.6329 0C29.5316 0 0.265869 29.2657 0.265869 65.367C0.265869 101.468 29.5316 130.734 65.6329 130.734C101.734 130.734 131 101.468 131 65.367C131 29.2657 101.734 0 65.6329 0Z" fill="#AF79FF"/>
</svg>
