<svg width="21" height="21" viewBox="0 0 21 21" fill="none" xmlns="http://www.w3.org/2000/svg">
<path d="M20.7156 19.1831L16.7963 15.3045C19.7707 11.6007 19.4907 6.1497 16.0965 2.76031C14.3119 0.978318 11.9675 0 9.44787 0C6.92841 0 4.54904 0.978381 2.76429 2.76031C0.979729 4.54229 0 6.88361 0 9.43426C0 11.985 0.979792 14.326 2.76429 16.1082C4.54885 17.8553 6.89354 18.8685 9.44787 18.8685C11.5824 18.8685 13.6821 18.1346 15.3265 16.807L19.2107 20.6856C19.4206 20.8952 19.6657 21 19.9456 21C20.2256 21 20.5056 20.8952 20.6806 20.6856C21.1005 20.2661 21.1005 19.6024 20.7155 19.1829L20.7156 19.1831ZM16.7963 9.43426C16.7963 11.391 16.0264 13.2429 14.6268 14.6056C13.2272 15.9684 11.4075 16.772 9.44794 16.772C7.48841 16.772 5.63381 16.0033 4.26909 14.6056C2.90413 13.2081 2.09937 11.391 2.09937 9.43426C2.09937 7.47756 2.8692 5.62563 4.26885 4.26288C5.66867 2.89989 7.45323 2.09628 9.44794 2.09628C11.4075 2.09628 13.2621 2.86501 14.6268 4.26263C15.9915 5.66044 16.7963 7.44243 16.7963 9.43426Z" fill="#363636"/>
</svg>
