<svg width="24" height="24" viewBox="0 0 24 24" fill="none" xmlns="http://www.w3.org/2000/svg">
<path d="M21.6 24H2.4C1.0768 24 0 22.9232 0 21.6V2.4C0 1.0768 1.0768 0 2.4 0H21.6C22.9232 0 24 1.0768 24 2.4V21.6C24 22.9232 22.9232 24 21.6 24ZM2.4 1.6C1.95929 1.6 1.6 1.95839 1.6 2.4V21.6C1.6 22.0416 1.95929 22.4 2.4 22.4H21.6C22.0407 22.4 22.4 22.0416 22.4 21.6V2.4C22.4 1.95839 22.0407 1.6 21.6 1.6H2.4Z" fill="#A466FF"/>
<path d="M11.7966 20.7457C6.86226 20.7457 2.84746 16.822 2.84746 12C2.84746 7.1779 6.8624 3.25421 11.7966 3.25421C16.7308 3.25421 20.7458 7.1779 20.7458 12C20.7458 16.822 16.7308 20.7457 11.7966 20.7457ZM11.7966 4.84435C7.75968 4.84435 4.47458 8.05407 4.47458 12C4.47458 15.9459 7.75968 19.1556 11.7966 19.1556C15.8335 19.1556 19.1186 15.9459 19.1186 12C19.1186 8.05407 15.8335 4.84435 11.7966 4.84435Z" fill="#A466FF"/>
<path d="M8.54237 14.6441C8.09328 14.6441 7.72881 14.2803 7.72881 13.8305V10.5763C7.72881 10.1264 8.09328 9.7627 8.54237 9.7627C8.99147 9.7627 9.35593 10.1264 9.35593 10.5763V13.8305C9.35593 14.2803 8.99147 14.6441 8.54237 14.6441Z" fill="#A466FF"/>
<path d="M15.0508 14.6441C14.6018 14.6441 14.2373 14.2803 14.2373 13.8305V10.5763C14.2373 10.1264 14.6018 9.7627 15.0508 9.7627C15.4999 9.7627 15.8644 10.1264 15.8644 10.5763V13.8305C15.8644 14.2803 15.4999 14.6441 15.0508 14.6441Z" fill="#A466FF"/>
<path d="M11.7966 17.0848C11.6909 17.0848 11.585 17.0604 11.4875 17.0197C11.3898 16.979 11.3005 16.922 11.2191 16.8488C11.1459 16.7666 11.0889 16.6778 11.0482 16.5802C10.9994 16.4825 10.983 16.3765 10.983 16.2708C10.983 16.0591 11.0726 15.8468 11.2189 15.6929C11.3003 15.6196 11.3817 15.5626 11.4873 15.5219C11.7803 15.3916 12.1464 15.4648 12.3741 15.6929C12.5206 15.8467 12.6102 16.0502 12.6102 16.2708C12.6102 16.3765 12.5938 16.4825 12.5452 16.58C12.5045 16.6778 12.4475 16.7664 12.3743 16.8486C12.2929 16.9218 12.2034 16.9788 12.1059 17.0195C12.0082 17.0604 11.9023 17.0848 11.7966 17.0848H11.7966Z" fill="#A466FF"/>
</svg>
